# xmcd
#
# Track frame offsets: 
#        150
#        17622
#        38423
#        53637
#        72677
#        84381
#        99762
#        117837
#        137377
#        151834
#        173848
#
# Disc length: 2560 seconds
#
# Revision: 0
# Processed by: cddbd v1.5.2PL0 Copyright (c) Steve Scherf et al.
# Submitted via: ExactAudioCopy v0.99pb5
#
DISCID=7809fe0b
DTITLE=Caroline Spence - Mint Condition
DYEAR=2019
DGENRE=Country
TTITLE0=What You Don't Know
TTITLE1=Angels Or Los Angeles
TTITLE2=Song About The City
TTITLE3=Sometimes A Woman Is An Island
TTITLE4=Who's Gonna Make My Mistakes
TTITLE5=Sit Here And Love Me
TTITLE6=Long Haul
TTITLE7=Wait On The Wine
TTITLE8=Who Are You
TTITLE9=Til You Find One
TTITLE10=Mint Condition
EXTD=
EXTT0=
EXTT1=
EXTT2=
EXTT3=
EXTT4=
EXTT5=
EXTT6=
EXTT7=
EXTT8=
EXTT9=
EXTT10=
PLAYORDER=
